<?xml version="1.0" encoding="UTF-8"?> <!-- Generator: Adobe Illustrator 23.0.2, SVG Export Plug-In . SVG Version: 6.00 Build 0) --> <svg xmlns="http://www.w3.org/2000/svg" xmlns:xlink="http://www.w3.org/1999/xlink" id="Layer_1" x="0px" y="0px" viewBox="0 0 400 245" style="enable-background:new 0 0 400 245;" xml:space="preserve"> <style type="text/css"> .st0{fill:url(#SVGID_1_);} .st1{fill:#55575B;} </style> <g> <linearGradient id="SVGID_1_" gradientUnits="userSpaceOnUse" x1="15.2678" y1="164.6178" x2="99.5229" y2="80.3626" gradientTransform="matrix(1 0 0 -1 0 245)"> <stop offset="0.2145" style="stop-color:#2475BB"></stop> <stop offset="0.7067" style="stop-color:#80BD42"></stop> <stop offset="1" style="stop-color:#FCE01D"></stop> </linearGradient> <path class="st0" d="M110.4,91.5L57.7,61l-0.4-0.2L57,61L4.6,91.3l-0.3,0.2L4,91.7v61.6l0.4,0.2L57,184l0.4,0.2l0.4-0.2l52-30 l0.7-0.4l0.4-0.2V91.7L110.4,91.5z M52.1,68.7L39.2,91H13.4L52.1,68.7z M37.1,94.7l-6,10.5L12.9,94.7H37.1z M32.4,110.2l21.3,12.3 l-21.3,12.3l-7.1-12.3L32.4,110.2z M29.2,108.4l-6,10.5L11.1,97.9L29.2,108.4z M8.2,100.2l12.9,22.3L8.2,144.8 C8.2,144.8,8.2,100.2,8.2,100.2z M23.2,126.2l6,10.5l-18.1,10.5L23.2,126.2z M31,139.8l6,10.5H12.9L31,139.8z M13.4,154h25.8 l12.9,22.3L13.4,154z M55.5,174.9L43.5,154h12.1V174.9z M55.5,150.3H41.3L34.2,138l21.3-12.3L55.5,150.3L55.5,150.3z M55.5,119.3 L34.2,107l7.1-12.3h14.2V119.3z M55.5,91H43.5l12.1-20.9V91z M85.5,108.4l18.1-10.5l-12.1,20.9L85.5,108.4z M89.4,122.5l-7.1,12.3 L61,122.5l21.3-12.3L89.4,122.5z M83.7,105.2l-6-10.5h24.2L83.7,105.2z M101.3,91H75.5L62.6,68.7L101.3,91z M59.2,70.1L71.3,91 H59.2V70.1z M59.2,94.7h14.2l7.1,12.3l-21.3,12.3V94.7z M59.2,125.7L80.5,138l-7.1,12.3H59.2V125.7z M59.2,154h12.1l-12.1,20.9V154 z M62.6,176.3L75.5,154h25.8L62.6,176.3z M77.6,150.3l6-10.5l18.1,10.5H77.6z M85.5,136.6l6-10.5l12.1,20.9L85.5,136.6z M106.6,144.8l-12.9-22.3l12.9-22.3V144.8z"></path> <polygon class="st1" points="124.9,140.3 150.1,140.3 150.1,142.6 127.5,142.6 127.5,161.6 148,161.6 148,164 127.5,164 127.5,183.6 124.9,183.6 "></polygon> <path class="st1" d="M154.5,170.5c0-7.5,6-13.5,13.5-13.5c7.6,0,13.4,6,13.4,13.5s-5.8,13.5-13.4,13.5 C160.4,184.1,154.5,178,154.5,170.5 M178.9,170.5c0-6.4-4.4-11.3-10.9-11.3c-6.5,0-11,4.8-11,11.3c0,6.4,4.5,11.3,11,11.3 C174.5,181.9,178.9,177,178.9,170.5"></path> <path class="st1" d="M188.2,174v-16.4h2.5v16c0,5.3,2.5,8.3,7.5,8.3c5.6,0,9.5-3.8,9.5-9.7v-14.5h2.5v26h-2.5l0.1-5.7 c-1.7,3.9-5.3,6.3-9.8,6.3C192.1,184.1,188.2,180.3,188.2,174"></path> <path class="st1" d="M216.9,157.6h2.5l-0.1,5.8c1.7-3.9,5.3-6.4,9.9-6.4c5.8,0,9.6,3.9,9.6,10.3v16.2h-2.5v-15.8 c0-5.3-2.5-8.5-7.5-8.5c-5.6,0-9.5,3.7-9.5,9.7v14.5h-2.5V157.6z"></path> <path class="st1" d="M245.7,170.5c0-7.6,5.4-13.5,12.9-13.5c5.3,0,9.1,2.9,11,6.7v-26.1h2.5v45.9h-2.5l0.1-6.5c-1.8,4-6.1,7-11.1,7 C251.1,184.1,245.7,178.2,245.7,170.5 M269.7,170.5c0-6.4-4.3-11.3-10.9-11.3c-6.4,0-10.5,4.8-10.5,11.3c0,6.4,4.1,11.3,10.5,11.3 C265.4,181.9,269.7,177,269.7,170.5"></path> <path class="st1" d="M297.3,167.3c0-5.8-2.7-8.1-6.9-8.1c-4,0-6.6,1.6-8.5,4.5l-1.8-1.3c2.2-3.4,5.8-5.3,10.3-5.3 c5.3,0,9.3,3.3,9.3,10v16.5h-2.5l0.1-4c-1.6,2.5-4.5,4.5-9,4.5c-5.9,0-9.8-2.7-9.8-8c0-5.1,4.5-7.6,9.5-7.6h9.2V167.3z M288.4,170.6c-4,0-7.3,1.5-7.3,5.5c0,4,2.6,5.8,7.6,5.8c4.3,0,8.6-2.5,8.6-6.5v-4.7L288.4,170.6L288.4,170.6z"></path> <path class="st1" d="M310.8,176.7v-17h-4.1v-2.1h4.1v-9.1h2.5v9.1h7.5v2.1h-7.5v16.9c0,3.8,1.3,5.2,3.5,5.2c2.3,0,3.2-0.9,4.1-1.9 l1.6,1.5c-1.3,1.5-2.8,2.6-5.7,2.6C313.5,184.1,310.8,182,310.8,176.7"></path> <path class="st1" d="M329.3,146.4c0-1.2,1-2.1,2.1-2.1c1.1,0,2.1,0.9,2.1,2.1c0,1.3-1,2.1-2.1,2.1 C330.3,148.5,329.3,147.7,329.3,146.4 M330.2,157.6h2.5v26h-2.5V157.6z"></path> <path class="st1" d="M340.1,170.5c0-7.5,6-13.5,13.5-13.5c7.6,0,13.4,6,13.4,13.5s-5.8,13.5-13.4,13.5 C346.1,184.1,340.1,178,340.1,170.5 M364.5,170.5c0-6.4-4.4-11.3-10.9-11.3s-11,4.8-11,11.3c0,6.4,4.5,11.3,11,11.3 S364.5,177,364.5,170.5"></path> <path class="st1" d="M374.1,157.6h2.5l-0.1,5.8c1.7-3.9,5.3-6.4,9.9-6.4c5.8,0,9.6,3.9,9.6,10.3v16.2h-2.5v-15.8 c0-5.3-2.5-8.5-7.5-8.5c-5.6,0-9.5,3.7-9.5,9.7v14.5h-2.5V157.6z"></path> <path class="st1" d="M124.9,89.5c0-16.2,12.5-28,28.1-28c15.5,0,28,11.7,28,28c0,16.2-12.5,28-28,28 C137.4,117.4,124.9,105.8,124.9,89.5 M172.4,89.5c0-11.6-8-20.4-19.4-20.4c-11.4,0-19.5,8.7-19.5,20.4s8.1,20.4,19.5,20.4 C164.4,109.8,172.4,101.1,172.4,89.5"></path> <path class="st1" d="M189.8,83.1h8.2l-0.2,6.2c2.2-4.2,6.2-7,11.9-7c8.6,0,15.6,7.3,15.6,17.5s-7.1,17.6-15.8,17.6 c-5.6,0-9.6-2.7-11.5-6.5v22.7h-8.2V83.1z M217,99.8c0-6.1-3.7-10.2-9.5-10.2c-5.9,0-9.8,4.2-9.8,10.2c0,6.3,3.8,10.5,9.8,10.5 C213.3,110.3,217,106.2,217,99.8"></path> <path class="st1" d="M253,110.7c4.4,0,7.6-1.8,9.5-3.6l4.7,5c-3.1,3.1-7.5,5.5-14.2,5.5c-11.5,0-19-7.5-19-17.5 c0-10,7.8-17.5,17.9-17.5c11.5,0,17.9,8.5,17.4,20.3h-27.1C243.3,107.5,246.8,110.7,253,110.7 M261.3,97c-0.7-4.5-3.5-7.9-9.1-7.9 c-5.2,0-8.8,2.9-9.8,7.9H261.3z"></path> <path class="st1" d="M278.4,83.1h8.1l-0.2,6.2c2.1-4.4,6.3-7,11.4-7c7.5,0,12.6,5.3,12.6,14.4v19.9h-8.1V97.4c0-4.8-2.2-7.6-7-7.6 c-5.3,0-8.7,3.2-8.7,8.6v18.2h-8.1V83.1z"></path> <path class="st1" d="M319.1,108.3l6.9-4.2c1.9,3.5,4.2,5.8,8.2,5.8c4.5,0,7.5-2.2,7.5-8.5V62.3h8.5v39.2c0,10.8-6.5,15.9-15.6,15.9 C326.4,117.4,321.7,113.3,319.1,108.3"></path> <path class="st1" d="M358.8,106.2l7-3.8c2.5,4.2,5.8,7.6,12.5,7.6c5.5,0,9.5-3,9.5-7.5c0-4.7-3.2-6.8-9.1-9.5l-3.6-1.6 c-7.9-3.5-12.7-7.5-12.7-15.9c0-8.1,6.2-13.8,15.3-13.8c7.2,0,12.1,2.7,15.4,8.5l-6.6,4.1c-2.1-3.6-4.5-5.3-8.7-5.3 c-4.3,0-7.1,2.6-7.1,6.3c0,4.1,2.3,5.9,7.8,8.3l3.5,1.6c9.3,4.1,14.2,8.4,14.2,17.1c0,9.5-7.5,15.1-17.7,15.1 C368.1,117.4,361.9,112.3,358.8,106.2"></path> </g> </svg> 