<?xml version="1.0" encoding="utf-8"?>
<svg version="1.1" xmlns="http://www.w3.org/2000/svg" viewBox="117 134 366 324">
<style type="text/css">
	.st0{fill:#7A7A7A;}
	.st1{fill:#4C5963;}
	.st2{fill:#FFFFFF;}
	.st3{fill:#00A9AC;}
	.st4{fill:#58C4C8;}
	.st5{fill:#C8E8E9;}
</style>
<g>
<path class="st0" d="M149.7,444.8v-1.3c2.1-0.2,2.7-0.9,2.7-3.3v-12.6c0-3.4-0.8-5.3-2.9-5.3c-1,0-2,0.4-3.2,1.4 c-0.7,0.6-1.5,1.5-1.5,1.8v14.7c0,2.1,0.6,3,2.5,3.3v1.3h-12.8v-1.3c2-0.2,2.6-1,2.6-3.3v-13.3c0-3.3-0.8-4.6-3-4.6 c-1.3,0-4.6,2.1-4.6,3.4v14.4c0,2.1,0.6,3,2.5,3.3v1.3h-13.2v-1.3c2.4-0.4,3-1.2,3-3.4v-15.9c0-2.6-0.7-3.2-3.1-3.5v-1.3h10.6v4.1 h0.2c2.1-3.4,4.4-4.8,8-4.8c3.5,0,5.4,1.3,7.1,4.8c2.9-3.5,5-4.8,8.1-4.8c4.5,0,7.5,2.9,7.5,7.9v13.7c0,2.4,0.6,3.2,2.8,3.3v1.3 H149.7z"/>
<path class="st0" d="M187.4,438.6c-3.3,5.3-6.2,7-11,7c-6.7,0-11.3-5.6-11.3-13.2c0-8.2,4.6-13.8,11.6-13.8c3.2,0,5.5,1,7.1,2.8 c2,2.3,3,5.8,3.3,9.8h-13.9c0.3,5.3,1.2,10.3,6.6,10.3c2.4,0,4.1-1.1,6.4-3.8L187.4,438.6z M180.3,428c0-2.9,0-4-0.5-5.1 c-0.8-1.7-1.4-2.6-3-2.6c-2.5,0-3.9,2.2-3.9,8.8h7.4V428z"/>
<path class="st0" d="M207.5,426.7c-0.8-2.4-1.4-3.4-2.6-4.5c-1.2-1.2-2.7-1.8-4.1-1.8c-2.1,0-3.7,1.4-3.7,3.2 c0,1.9,1.5,3.3,5.3,4.9c5.5,2.3,7.6,4.7,7.6,8.6c0,5-3.5,8.4-8.5,8.4c-1.5,0-4.4-0.6-6-1.3c-0.6-0.2-1-0.3-1.3-0.3 c-0.5,0-0.8,0.4-1.4,1.5h-1.4v-9.1h1.5c1.2,4.8,3.7,7.3,7.6,7.3c2.5,0,4.1-1.4,4.1-3.6c0-1.8-1.5-3.2-5.3-4.8 c-5.6-2.4-7.9-4.9-7.9-8.6c0-4.6,3.6-8.1,8.7-8.1c1.3,0,2.5,0.2,4.3,0.8c0.9,0.3,1.4,0.4,1.7,0.4c0.7,0,1.1-0.3,1.4-1.1h1.2v8 H207.5z"/>
<path class="st0" d="M230,426.7c-0.8-2.4-1.4-3.4-2.6-4.5c-1.2-1.2-2.7-1.8-4.1-1.8c-2.1,0-3.7,1.4-3.7,3.2c0,1.9,1.5,3.3,5.3,4.9 c5.5,2.3,7.6,4.7,7.6,8.6c0,5-3.5,8.4-8.5,8.4c-1.5,0-4.4-0.6-6-1.3c-0.6-0.2-1-0.3-1.3-0.3c-0.5,0-0.8,0.4-1.4,1.5h-1.4v-9.1h1.5 c1.2,4.8,3.7,7.3,7.6,7.3c2.5,0,4.1-1.4,4.1-3.6c0-1.8-1.5-3.2-5.3-4.8c-5.6-2.4-7.9-4.9-7.9-8.6c0-4.6,3.6-8.1,8.7-8.1 c1.3,0,2.5,0.2,4.3,0.8c0.9,0.3,1.4,0.4,1.7,0.4c0.7,0,1.1-0.3,1.4-1.1h1.2v8H230z"/>
<path class="st0" d="M261.9,442.4c-2.1,2.3-3.8,3.2-6.2,3.2c-2.7,0-3.9-1-4.5-3.8c-3,2.8-5.6,3.8-8.8,3.8c-3.5,0-6.1-1.8-6.1-5.9 c0-2.4,1.2-4.5,3.7-6.2c2.1-1.4,4.7-2.4,11.1-4.2v-3.8c0-3.5-1.2-5.1-4.5-5.1c-2,0-3.6,0.7-3.6,2c0,0.3,0.1,0.7,0.6,1.3 c0.7,0.9,1.1,1.5,1.1,2.3c0,1.9-1.5,3.3-3.8,3.3c-2.3,0-3.6-1.4-3.6-3.8c0-4.4,4.3-7,10.6-7c6.7,0,10.8,2.7,10.8,7.4v14.4 c0,0.9,0.4,1.5,1.2,1.5c0.3,0,0.4-0.1,0.6-0.2l0.6-0.6L261.9,442.4z M251.1,431.2c-4.4,1.2-6.7,3.5-6.7,6.7c0,2.4,1.2,3.7,2.9,3.7 c1.3,0,2.7-0.5,3.9-2.2V431.2z"/>
<path class="st0" d="M280.4,441.1c6,0,9.8,2.5,9.8,6.6c0,5.2-5.2,8.5-14.4,8.5c-7,0-10.7-1.8-10.7-5.1c0-2.3,1.8-3.6,5.3-4.1 c-3.5-1.3-4.5-2.5-4.5-4.5c0-3.3,2.2-5.2,6.6-6.5c-3.9-1.1-6.9-4.2-6.9-8.4c0-5.5,4.6-8.9,11.2-8.9c2.2,0,3.8,0.3,6.2,1.2h7.1v2.9 h-4.4c1.5,1.4,2.2,3.2,2.2,5.4c0,3.5-1.7,5.9-5.1,7.3c-1.8,0.8-2,0.8-7,0.8c-2.2,0-3.8,1.1-3.8,2.7c0,1.5,1.2,2,5.6,2H280.4z M271.8,447.7c-1.5,1.3-1.9,1.9-1.9,3c0,2.4,2.5,3.7,7.4,3.7c5.5,0,8.5-1.5,8.5-3.6c0-1.9-1.3-3.1-4.9-3.1H271.8z M276.7,420.4 c-2.6,0-3.6,1.8-3.6,7.2c0,5.1,1,7.1,3.6,7.1c2.7,0,3.6-2,3.6-7.2C280.4,422.4,279.4,420.4,276.7,420.4z"/>
<path class="st0" d="M313.8,438.6c-3.3,5.3-6.2,7-11,7c-6.7,0-11.3-5.6-11.3-13.2c0-8.2,4.6-13.8,11.6-13.8c3.2,0,5.5,1,7.1,2.8 c2,2.3,3,5.8,3.3,9.8h-13.9c0.3,5.3,1.2,10.3,6.6,10.3c2.4,0,4.1-1.1,6.4-3.8L313.8,438.6z M306.7,428c0-2.9,0-4-0.5-5.1 c-0.8-1.7-1.4-2.6-3-2.6c-2.5,0-3.9,2.2-3.9,8.8h7.4V428z"/>
<path class="st0" d="M320.4,419.3c0-4.4,0.4-7.7,2.2-9.9c1.5-1.8,3.9-2.8,7.5-2.8c4.7,0,7.9,2.3,7.9,5.5c0,2-1.4,3.5-3.4,3.5 c-1.9,0-3.3-1.4-3.3-3.2c0-1.9,1.2-2.4,1.2-3.2c0-0.7-0.6-1.1-1.6-1.1c-2,0-2.8,1.1-2.8,4.4v6.6h4.8v2.4h-4.8v17.1 c0,3.6,0.7,4.5,4.5,4.6v1.3h-15.4v-1.3c2.5-0.3,3.2-1,3.2-3.5v-18.3h-3.2v-2.4H320.4z"/>
<path class="st0" d="M349,445.5c-6.9,0-12.4-5.5-12.4-13.4c0-8.1,5.4-13.6,12.7-13.6c7,0,12.3,5.6,12.3,13.5 C361.5,439.9,356.1,445.5,349,445.5z M349,420.3c-3.4,0-4.4,2.9-4.4,12.4c0,8,1.2,11.1,4.4,11.1c3.2,0,4.3-2.9,4.3-11.1 C353.3,423.2,352.3,420.3,349,420.3z"/>
<path class="st0" d="M375.8,423.8c2.6-3.8,4.7-5.2,7.5-5.2c2.6,0,4.5,1.8,4.5,4.4c0,2.2-1.4,3.8-3.5,3.8c-1.4,0-2.4-0.6-3.3-2.1 c-0.6-1-1.1-1.3-1.5-1.3c-1.9,0-3.4,2.5-3.4,5.8v9.8c0,3.5,0.6,4.3,4,4.5v1.3h-14.7v-1.3c2.4-0.4,3-1.1,3-3.3v-16 c0-2.6-0.7-3.2-3-3.5v-1.3h10.5V423.8z"/>
<path class="st0" d="M420.8,444.8v-1.3c2.1-0.2,2.7-0.9,2.7-3.3v-12.6c0-3.4-0.8-5.3-2.9-5.3c-1,0-2,0.4-3.2,1.4 c-0.7,0.6-1.5,1.5-1.5,1.8v14.7c0,2.1,0.6,3,2.5,3.3v1.3h-12.8v-1.3c2-0.2,2.6-1,2.6-3.3v-13.3c0-3.3-0.8-4.6-3-4.6 c-1.3,0-4.6,2.1-4.6,3.4v14.4c0,2.1,0.6,3,2.5,3.3v1.3h-13.2v-1.3c2.4-0.4,3-1.2,3-3.4v-15.9c0-2.6-0.7-3.2-3.1-3.5v-1.3h10.6v4.1 h0.2c2.1-3.4,4.4-4.8,8-4.8c3.5,0,5.4,1.3,7.1,4.8c2.9-3.5,5-4.8,8.1-4.8c4.5,0,7.5,2.9,7.5,7.9v13.7c0,2.4,0.6,3.2,2.8,3.3v1.3 H420.8z"/>
<path class="st0" d="M463.3,442.4c-2.1,2.3-3.8,3.2-6.2,3.2c-2.7,0-3.9-1-4.5-3.8c-3,2.8-5.6,3.8-8.8,3.8c-3.5,0-6.1-1.8-6.1-5.9 c0-2.4,1.2-4.5,3.7-6.2c2.1-1.4,4.7-2.4,11.1-4.2v-3.8c0-3.5-1.2-5.1-4.5-5.1c-2,0-3.6,0.7-3.6,2c0,0.3,0.1,0.7,0.6,1.3 c0.7,0.9,1.1,1.5,1.1,2.3c0,1.9-1.5,3.3-3.8,3.3c-2.3,0-3.6-1.4-3.6-3.8c0-4.4,4.3-7,10.6-7c6.7,0,10.8,2.7,10.8,7.4v14.4 c0,0.9,0.4,1.5,1.2,1.5c0.3,0,0.4-0.1,0.6-0.2l0.6-0.6L463.3,442.4z M452.5,431.2c-4.4,1.2-6.7,3.5-6.7,6.7c0,2.4,1.2,3.7,2.9,3.7 c1.3,0,2.7-0.5,3.9-2.2V431.2z"/>
<path class="st0" d="M481.4,439.2c-2.3,4.5-4.5,6.2-8.2,6.2c-3.8,0-6.2-2.2-6.2-5.9v-17.8h-2.9v-1.5c4-2.7,6-5.6,9.2-10.3h1.4v9.3 h5.3v2.4h-5.3v16.5c0,2.2,0.6,3.3,2.2,3.3c1.2,0,2-0.8,3.2-2.9L481.4,439.2z"/>
</g>
<g>
<circle class="st1" cx="300" cy="252.8" r="118.2"/>
<polygon class="st2" points="336.4,294.9 318.9,259.8 301.4,277.3 283.8,259.8 266.3,294.9 231.3,294.9 266.3,207.2 301.4,242.3 336.4,207.2 371.5,294.9"/>
<g>
<rect x="253.7" y="207.2" class="st4" width="12.6" height="12.8"/>
<rect x="253.7" y="219.7" class="st5" width="12.6" height="12.8"/>
<rect x="253.5" y="232.2" class="st3" width="12.8" height="12.6"/>
<rect x="241.1" y="232.2" class="st5" width="12.6" height="12.8"/>
<rect x="241.1" y="244.8" class="st4" width="12.6" height="12.8"/>
<rect x="253.5" y="257.4" class="st3" width="12.8" height="12.5"/>
<rect x="241.1" y="257.4" class="st5" width="12.6" height="12.8"/>
<rect x="240.9" y="269.9" class="st4" width="12.8" height="12.6"/>
<rect x="228.5" y="269.9" class="st5" width="12.6" height="12.8"/>
<rect x="228.5" y="282.5" class="st3" width="12.6" height="12.5"/>
</g>
</g>
</svg>
